<svg xmlns="http://www.w3.org/2000/svg" width="720" height="720" viewBox="0 0 720 720" version="1.1"><path d="M 325 85.370 C 303.219 90.134, 282.657 113.869, 271.429 147.210 C 264.691 167.219, 264.474 169.521, 264.729 218.264 L 264.958 262.027 262.229 261.390 C 250.523 258.657, 237.865 252.539, 220.552 241.247 C 191.716 222.440, 179.795 218.012, 161.483 219.304 C 151.506 220.008, 145.030 222.376, 136.568 228.414 C 122.098 238.740, 112.886 256.474, 110.121 279.331 C 108.213 295.106, 112.970 314.312, 122.865 330.776 C 134.102 349.472, 151.457 366.181, 181.500 387.230 C 185.900 390.312, 191.299 394.394, 193.497 396.300 L 197.495 399.767 193.997 401.222 C 192.074 402.023, 186.258 403.892, 181.073 405.377 C 164.182 410.213, 143.675 420.153, 128.503 430.858 C 113.369 441.535, 95.427 461.504, 85.694 478.500 C 79.019 490.156, 76.662 497.788, 76.581 508 C 76.522 515.487, 76.856 517.156, 79.382 522 C 85.194 533.145, 102.556 546.718, 122.649 555.824 C 132.728 560.392, 147.392 563.885, 162.127 565.230 C 182.863 567.121, 202.471 563.494, 222.673 554.030 C 244.030 544.026, 260.805 528.320, 278.045 502.190 C 284.464 492.461, 286.971 489.366, 287.363 490.690 C 287.857 492.357, 289.181 511.707, 292.028 558.894 C 293.737 587.212, 299.536 605.539, 311.540 620.559 C 321.785 633.379, 336.358 640.911, 351.040 640.976 C 372.911 641.072, 397.424 623.737, 410.394 599 C 421.412 577.988, 422.611 549.801, 413.911 516.319 C 406.905 489.358, 404.228 478.512, 404.501 478.201 C 404.646 478.037, 407.638 480.062, 411.149 482.701 C 448.980 511.136, 478.639 528.265, 505 536.904 C 520.418 541.956, 524.929 542.812, 540.324 543.599 C 561.308 544.673, 574.023 542.415, 592.500 534.334 C 609.791 526.773, 626.804 512.285, 635.276 497.908 C 644.025 483.060, 647.015 464.416, 643.121 448.992 C 636.350 422.175, 617.390 399.657, 586.044 381.205 C 572.763 373.387, 561.144 368.502, 534.500 359.533 C 512.181 352.020, 498.308 346.330, 481.258 337.695 C 472.512 333.265, 468.219 330.446, 469.015 329.655 C 469.282 329.390, 477.375 327.523, 487 325.505 C 496.625 323.487, 509.346 320.273, 515.268 318.362 C 544.880 308.809, 572.238 294.353, 588.577 279.626 C 604.741 265.057, 610.779 246.086, 604.533 229.493 C 597.259 210.166, 582.428 198.174, 558.298 192.106 C 538.210 187.055, 520 185.940, 499.343 188.498 C 459.753 193.399, 431.760 203.129, 396 224.419 C 389.368 228.367, 386.412 229.658, 386.207 228.695 C 385.873 227.121, 388.764 213.882, 392.426 200.220 C 396.068 186.629, 397.267 176.397, 397.256 159 C 397.244 140.432, 395.543 132.742, 388.384 118.881 C 381.347 105.255, 371.422 94.774, 360.144 89.059 C 351.047 84.449, 336.295 82.900, 325 85.370" stroke="none" fill="#fb835c" fill-rule="evenodd"/><path d="M 0 360.001 L 0 720.003 360.250 719.751 L 720.500 719.500 720.751 359.750 L 721.003 -0 360.501 -0 L 0 0 0 360.001 M 0.495 360.500 C 0.495 558.500, 0.609 639.649, 0.750 540.831 C 0.890 442.013, 0.890 280.013, 0.750 180.831 C 0.609 81.649, 0.495 162.500, 0.495 360.500 M 325 85.370 C 303.219 90.134, 282.657 113.869, 271.429 147.210 C 264.691 167.219, 264.474 169.521, 264.729 218.264 L 264.958 262.027 262.229 261.390 C 250.523 258.657, 237.865 252.539, 220.552 241.247 C 191.716 222.440, 179.795 218.012, 161.483 219.304 C 151.506 220.008, 145.030 222.376, 136.568 228.414 C 122.098 238.740, 112.886 256.474, 110.121 279.331 C 108.213 295.106, 112.970 314.312, 122.865 330.776 C 134.102 349.472, 151.457 366.181, 181.500 387.230 C 185.900 390.312, 191.299 394.394, 193.497 396.300 L 197.495 399.767 193.997 401.222 C 192.074 402.023, 186.258 403.892, 181.073 405.377 C 164.182 410.213, 143.675 420.153, 128.503 430.858 C 113.369 441.535, 95.427 461.504, 85.694 478.500 C 79.019 490.156, 76.662 497.788, 76.581 508 C 76.522 515.487, 76.856 517.156, 79.382 522 C 85.194 533.145, 102.556 546.718, 122.649 555.824 C 132.728 560.392, 147.392 563.885, 162.127 565.230 C 182.863 567.121, 202.471 563.494, 222.673 554.030 C 244.030 544.026, 260.805 528.320, 278.045 502.190 C 284.464 492.461, 286.971 489.366, 287.363 490.690 C 287.857 492.357, 289.181 511.707, 292.028 558.894 C 293.737 587.212, 299.536 605.539, 311.540 620.559 C 321.785 633.379, 336.358 640.911, 351.040 640.976 C 372.911 641.072, 397.424 623.737, 410.394 599 C 421.412 577.988, 422.611 549.801, 413.911 516.319 C 406.905 489.358, 404.228 478.512, 404.501 478.201 C 404.646 478.037, 407.638 480.062, 411.149 482.701 C 448.980 511.136, 478.639 528.265, 505 536.904 C 520.418 541.956, 524.929 542.812, 540.324 543.599 C 561.308 544.673, 574.023 542.415, 592.500 534.334 C 609.791 526.773, 626.804 512.285, 635.276 497.908 C 644.025 483.060, 647.015 464.416, 643.121 448.992 C 636.350 422.175, 617.390 399.657, 586.044 381.205 C 572.763 373.387, 561.144 368.502, 534.500 359.533 C 512.181 352.020, 498.308 346.330, 481.258 337.695 C 472.512 333.265, 468.219 330.446, 469.015 329.655 C 469.282 329.390, 477.375 327.523, 487 325.505 C 496.625 323.487, 509.346 320.273, 515.268 318.362 C 544.880 308.809, 572.238 294.353, 588.577 279.626 C 604.741 265.057, 610.779 246.086, 604.533 229.493 C 597.259 210.166, 582.428 198.174, 558.298 192.106 C 538.210 187.055, 520 185.940, 499.343 188.498 C 459.753 193.399, 431.760 203.129, 396 224.419 C 389.368 228.367, 386.412 229.658, 386.207 228.695 C 385.873 227.121, 388.764 213.882, 392.426 200.220 C 396.068 186.629, 397.267 176.397, 397.256 159 C 397.244 140.432, 395.543 132.742, 388.384 118.881 C 381.347 105.255, 371.422 94.774, 360.144 89.059 C 351.047 84.449, 336.295 82.900, 325 85.370" stroke="none" fill="#fbfbfb" fill-rule="evenodd"/></svg>